<svg id="Layer_1" data-name="Layer 1" xmlns="http://www.w3.org/2000/svg" viewBox="0 0 512 512"><defs><style>.cls-1{fill:#6d4135;}</style></defs><title>square-padlock-locked-outline</title><path class="cls-1" d="M448,170.67H384V128a128,128,0,0,0-256,0v42.67H64A21.33,21.33,0,0,0,42.67,192V490.67A21.33,21.33,0,0,0,64,512H448a21.33,21.33,0,0,0,21.33-21.33V192A21.33,21.33,0,0,0,448,170.67ZM170.67,128a85.33,85.33,0,1,1,170.67,0v42.67H170.67Zm256,341.33H85.33v-256H426.67Z"/><path class="cls-1" d="M256,256a64,64,0,0,0-21.33,124.33v46.34a21.33,21.33,0,1,0,42.67,0V380.33A64,64,0,0,0,256,256Zm0,85.33A21.33,21.33,0,1,1,277.33,320,21.36,21.36,0,0,1,256,341.33Z"/></svg>